<svg width="265" height="710" viewBox="0 0 265 710" fill="none" xmlns="http://www.w3.org/2000/svg">
<rect x="157" y="29.3998" width="74.7012" height="17.2106" transform="rotate(-23.1765 157 29.3998)" fill="#7F8CFF"/>
<path d="M259.207 50.4107C255.738 44.3227 250.869 39.128 244.993 35.247C239.117 31.3661 232.4 28.9081 225.384 28.072C218.369 27.236 211.253 28.0454 204.613 30.4346C197.973 32.8239 191.995 36.726 187.163 41.8248C182.332 46.9237 178.782 53.076 176.803 59.7837C174.823 66.4914 174.468 73.5659 175.767 80.4343C177.066 87.3027 179.983 93.7721 184.281 99.3186C188.579 104.865 194.137 109.333 200.505 112.36L208.894 95.1015C205.266 93.377 202.099 90.8318 199.651 87.6719C197.202 84.5121 195.541 80.8265 194.801 76.9136C194.06 73.0007 194.263 68.9703 195.39 65.149C196.518 61.3276 198.54 57.8226 201.293 54.9178C204.046 52.013 207.451 49.79 211.234 48.4289C215.017 47.0677 219.071 46.6066 223.067 47.0829C227.064 47.5592 230.891 48.9595 234.239 51.1705C237.586 53.3814 240.36 56.3409 242.336 59.8092L259.207 50.4107Z" fill="white"/>
<circle cx="10.5" cy="44.5004" r="10.5" fill="#7F8CFF"/>
<rect width="76.175" height="13.6273" transform="matrix(0.801365 0.598176 0.598176 -0.801365 105.804 653.889)" fill="#7F8CFF"/>
<circle cx="122.228" cy="687.219" r="15.5552" transform="rotate(48.9435 122.228 687.219)" fill="white"/>
</svg>
